# xmcd
#
# Track frame offsets:
#	150
#	17255
#	32410
#	51320
#	72378
#	88928
#	105928
#	118691
#	130139
#	147817
#	164680
#	176691
#	191401
#	201552
#	216874
#
# Disc length: 3163 seconds
#
# Revision: 0
# Processed by: cddbd v1.5PL3 Copyright (c) Steve Scherf et al.
# Submitted via: dBpowerAMP V4.0
#
DISCID=d70c590f
DTITLE=Joan Baez - Legendarios del siglo XX [CD2]
DYEAR=1900
DGENRE=Blues
TTITLE0=No woman no cry
TTITLE1=Do right woman, do right man
TTITLE2=Bermingham Sunday
TTITLE3=All my trials
TTITLE4=The riddle song
TTITLE5=Where have all the flowers gone
TTITLE6=The water is wide
TTITLE7=Silver dagger
TTITLE8=John Riley
TTITLE9=Sing long sweet chariot
TTITLE10=Black is the color of my true love's hair
TTITLE11=Lonesome Valley
TTITLE12=Go way from my window
TTITLE13=10.000 miles
TTITLE14=Hand to mouth
EXTD=
EXTT0=
EXTT1=
EXTT2=
EXTT3=
EXTT4=
EXTT5=
EXTT6=
EXTT7=
EXTT8=
EXTT9=
EXTT10=
EXTT11=
EXTT12=
EXTT13=
EXTT14=
PLAYORDER=
